# xmcd
# 
# Track frame offsets:
#     150
#     16882
#     25907
#     36390
#     47345
#     68377
#     79730
#     96892
#     106555
#     116230
#     122490
#     130580
#     136215
#     144137
#     154505
#     159140
#     167105
# 
# Disc length: 2601
# 
# Revision: 2
# Processed by: cddbd v1.5.2PL0 Copyright (c) Steve Scherf et al.
# Submitted via: BonkEnc v1.0.8
# 
DISCID=c10a2711
DTITLE=小野川浩幸 - 「五条霊戦記／ＧＯＪＯＥ」オリジナル・サウンドトラック
DYEAR=2000
DGENRE=Soundtrack
TTITLE0=Opening theme
TTITLE1=Oni
TTITLE2=Musyukunin
TTITLE3=Ambient
TTITLE4=Battle
TTITLE5=Shrine
TTITLE6=Onikilimaru
TTITLE7=Beat
TTITLE8=Murder
TTITLE9=Ajyari
TTITLE10=Hesitation
TTITLE11=Lost light
TTITLE12=Accelerator
TTITLE13=Destiny
TTITLE14=Final battle
TTITLE15=Rhythm
TTITLE16=The end
EXTD=
EXTT0=
EXTT1=
EXTT2=
EXTT3=
EXTT4=
EXTT5=
EXTT6=
EXTT7=
EXTT8=
EXTT9=
EXTT10=
EXTT11=
EXTT12=
EXTT13=
EXTT14=
EXTT15=
EXTT16=
PLAYORDER=
